<svg xmlns="http://www.w3.org/2000/svg" viewBox="0 0 54.8 41.9"><g fill="none" stroke="#36c" stroke-miterlimit="10"><path d="M5.8 39.4c-.1 0-1.4 0-2.4-1-.6-.6-.9-1.4-.9-2.4V5c0-.1 0-.6.3-1.2.4-.8 1.1-1.3 2.1-1.3 1.2 0 2.1.6 3.3 1.8C11.8 8 39.7 38.3 40 38.6c.1.1.2.3.1.5s-.2.3-.4.3H5.8z" stroke-width="5"/><path d="M49.3 39.8H38c-.3 0-.5-.2-.5-.5s.2-.5.5-.5h11.3c2.5 0 2.5-2.4 2.5-2.5V11.6c0-1.1-.6-1.3-.8-1.4-.9-.2-1.5.5-1.5.5l-11.8 8.6c-.2.2-.5.2-.7 0s-.2-.5 0-.7L48.8 10s1-1.1 2.4-.8c.7.2 1.5.9 1.5 2.3v24.7c0 1.4-.7 3.6-3.4 3.6z" stroke-width="4.2"/></g></svg>